Patient4_TMGait_0pt4_01_left_21_EMG.mot
version=1
nRows=27
nColumns=33
inDegrees=no
endheader
time	1LAddLong	2LGlutMax	3LGlutMed	4LIliopsoas	5LSemiMemb	6LBicFemLong	7LRecFem	8LVastMed	9LVastLat	10LGasMed	11LTibAnt	12lTibPost	13LPeroneusLong	14LSol	15LExtDigLong	16LFlexDigLong	17RAddLong	18RGlutMax	19RGlutMed	20RIliopsoas	21RSemiMemb	22RBicFemLong	23RRecFem	24RVastMed	25RVastLat	26RGasMed	27RTibAnt	28RTibPost	29RPeroneusLong	30RSol	31RExtDigLong	32RFlexDigLong
25.17	-0.005493	0.29892	0.039673	0.031738	0.026398	-0.014954	0.4245	0.009918	-0.19959	-0.041504	-0.049286	0.009308	0.14404	-0.007477	-0.14374	0.019836	0.01236	-0.094757	-0.59036	0.016937	0.27527	-0.003357	0.18112	-0.23758	0.072937	0.014954	-0.13519	-0.000763	1.655	0.18829	-0.000458	-0.003815
25.171	-0.003967	0.34485	0.049438	0.053406	0.010834	-0.013885	0.38116	0.017548	-0.18982	-0.014954	-0.061493	-0.000305	0.12039	-0.067139	-0.67886	0.01709	0.001373	-0.080261	-0.40192	0.2153	0.098419	0.003204	0.2739	-0.25604	0.037842	-0.003052	0.053864	-0.001526	0.56671	0.19959	-0.002136	-0.00885
25.172	0.001678	0.36575	0.018768	0.015564	0.012207	0.007172	0.39261	0.027313	-0.19867	0.026245	0.030823	0.002289	0.009308	0.000763	-0.32944	0.005493	0.00061	-0.14633	-0.49774	0.18524	0.015564	-0.008545	0.17014	-0.1944	-0.040436	-0.003204	0.18494	0.002594	-1.0759	0.16052	0.001221	-0.008698
25.173	-0.005798	0.39948	0.028534	0.000916	0.016785	0.012054	0.38727	0.017395	-0.18234	0.0383	0.040436	0.007477	-0.024261	0.077972	0.003052	0.003815	-0.011139	-0.1738	-0.73044	0.18784	0.012817	0.009918	-0.087738	-0.10086	-0.1738	0.015259	-0.13794	0.00412	-0.74371	-0.095978	-0.002747	-0.000458
25.174	0.001221	0.38834	0.036926	-0.023193	0.00473	0.023499	0.38132	0.02243	-0.18158	0.02243	-0.13565	-0.000916	-0.003815	0.004272	-0.025482	0.001221	-0.018768	-0.16571	0.085754	0.0914	-0.007172	-0.031128	0.009766	0.093842	-0.077057	0.021667	-0.21942	0.004425	-0.12863	-0.14069	-0.001373	0.007019
25.175	-0.009613	0.40298	0.017853	-0.015106	-0.011444	0.016479	0.36255	0.023041	-0.17227	0.022583	-0.11871	-0.006409	0.031586	-0.11826	0.082703	-0.00351	-0.012207	-0.29724	0.61218	-0.003357	-0.012207	-0.010681	0.076447	0.055237	-0.025787	0.016785	-0.25375	0.005646	0.70664	-0.14984	-0.003052	0.011597
25.176	-0.001068	0.39322	0.012817	-0.015564	-0.01297	0.011902	0.32867	0.00885	-0.16007	0.005341	-0.086823	0.002747	0.05661	-0.12924	0.013428	-0.001221	-0.012207	-0.37582	0.86899	-0.000458	-0.009003	-0.007629	-0.12451	-0.042877	-0.074921	0.016174	-0.35629	0.002136	0.42587	-0.10849	-0.00351	0.011444
25.177	0.004425	0.44205	0.10117	-0.034485	0.009766	0.015259	0.31387	0.02182	-0.15701	0.026398	-0.039215	0.008545	-0.00412	-0.088196	-0.053253	0.009918	-0.018158	-0.3714	-0.1268	0.017395	-0.020294	-0.01236	-0.40863	0.086517	-0.048676	0.003052	0.062866	0.000916	0.29129	0.013428	-0.006714	0.002289
25.178	0.009918	0.41031	0.016632	-0.00351	0.021057	0.010071	0.28168	0.024261	-0.1535	0.003967	-0.039673	0.004272	0.042267	-0.034943	0.16693	0.00946	-0.012817	-0.34027	0.01358	0.012512	-0.021973	-0.00946	-0.1915	0.13214	0.064087	-0.011139	0.078735	-0.002594	-0.70358	0.11551	-0.003357	0.007935
25.179	0.007324	0.45441	-0.012665	0.003052	0.012207	0.01358	0.28137	0.018616	-0.15747	-0.012512	0.009155	-0.001068	0.011444	0.028839	-0.07019	0.004272	-0.000916	-0.40741	-0.084534	-0.012665	-0.039673	-0.020447	-0.091248	0.13855	0.10452	0.00946	0.061493	0.002289	-0.25757	-0.1004	-0.000305	0.008545
25.18	0.007782	0.47012	0.071869	-0.003357	0.00885	0.026398	0.27908	0.017242	-0.13977	-0.042114	-0.029907	0.002899	0.003357	0.007782	0.9494	0.01297	0.003967	-0.48859	-0.74387	-0.12253	-0.056458	-0.024872	-0.13321	-0.019226	0.22095	0.010376	0.40497	0.001984	-0.056152	-0.2475	-0.002136	0.005341
25.181	0.001068	0.49454	-0.003662	-0.004272	0.015411	0.018158	0.28183	0.016937	-0.13596	-0.015259	-0.054016	0.00412	0.014191	0.027161	-0.4509	0.01297	-0.000305	-0.52963	-0.66757	-0.17395	-0.04425	-0.034332	-0.27878	-0.22232	0.26123	0.014648	-0.000153	0.003815	0.94376	-0.327	0.000305	0.003357
25.182	0.008087	0.50842	-0.080261	0.014038	0.002594	0.00946	0.2652	0.013275	-0.14557	0.015869	0.077057	-0.006409	-0.046539	-0.018463	-0.24277	0.023804	0.000458	-0.48019	-0.17105	-0.086975	-0.04364	-0.006104	-0.046234	-0.11002	0.067139	0.016022	-0.33005	0.002747	1.0425	-0.1886	-0.000458	-0.005188
25.183	0.005951	0.5127	-0.019379	0.009918	0.022278	0.003815	0.2536	0.014191	-0.15564	-0.003662	0.001831	0.010071	-0.0354	-0.007782	-0.30136	0.009613	0.000305	-0.45746	0.36194	-0.050964	-0.03891	-0.009308	-0.07431	-0.029449	-0.000763	0.003052	0.17639	-0.000763	-0.082855	-0.040131	-0.001373	0.00061
25.184	0.007477	0.50339	0.005798	-0.007935	0.018005	0.022888	0.25055	0.018158	-0.13626	-0.002899	-0.001678	-0.006409	-0.037689	-0.056915	-0.13031	-0.003967	0.010681	-0.50629	-0.000763	0.077667	-0.046387	0.003052	-0.1236	-0.009918	-0.016785	-0.006409	0.86395	0.002136	-1.217	-0.027618	-0.004272	-0.006866
25.185	-0.005493	0.49972	0.083771	0.005493	0.023651	0.000458	0.25055	0.015411	-0.13138	-0.015259	-0.027161	-0.007477	-0.02533	-0.11169	-0.17731	-0.005035	0.011597	-0.38895	-0.64316	0.11429	-0.03891	-0.000305	-0.15228	0.15442	0.045624	0.011444	0.20081	0.003662	-0.79544	-0.20004	-0.002899	-0.000916
25.186	0.008698	0.44113	0.068359	-0.004883	0.020294	0.025787	0.25528	0.018616	-0.13306	-0.009308	0.04776	-0.009613	-0.035095	-0.12192	0.034485	-0.010223	-0.008698	-0.29953	-0.2388	0.062256	-0.020142	-0.003204	-0.22675	0.11581	0.13046	0.015869	-0.75928	0.001678	0.38025	-0.31891	-0.009003	0.000153
25.187	-0.003357	0.40298	0.059509	0.001068	0.005646	0.036469	0.23163	0.019684	-0.12741	-0.03067	0.097961	-0.008392	0.016022	-0.10559	0.075226	-0.008698	-0.002289	-0.24017	-0.51071	-0.013428	-0.011597	-0.006104	-0.22049	-0.020294	0.13687	0.011749	-0.73791	0.001831	-0.29465	-0.013885	-0.003662	0.001373
25.188	-0.00946	0.34866	0.03479	-0.012054	0.005341	0.023499	0.22751	0.013733	-0.13458	-0.052185	0.095367	-0.006256	0.040283	-0.061951	0.078278	-0.007172	0.006256	-0.25604	-0.39383	-0.10666	-0.04364	0.009308	-0.18326	-0.014496	0.12375	0.003967	-0.28122	0.002441	-0.11398	0.2652	-0.001526	-0.000916
25.189	-0.005798	0.2803	-0.001526	-0.00061	-0.052795	0.007172	0.2211	0.014343	-0.12756	0.039978	-0.14984	-0.000763	-0.007629	-0.11322	0.30456	0	0.005646	-0.21774	-0.14236	-0.19577	-0.10895	0.012054	-0.093384	-0.14374	0.020599	0.008392	-0.088348	-0.007477	1.4867	0.079956	-0.002441	0.002441
25.19	-0.003815	0.27695	-0.014954	0.010071	-0.046234	-0.014191	0.21866	0.024109	-0.13443	0.103	-0.12772	-0.001526	0.006256	-0.11597	0.088654	-0.006256	0.003357	-0.16617	0.69687	-0.096893	-0.080261	-0.036163	-0.14008	-0.28641	-0.034027	-0.005341	-0.013123	0.00061	0.65094	0.11932	-0.001068	-0.001068
25.191	0.003052	0.2623	-0.019073	0.009155	0.020142	-0.044708	0.19272	0.01297	-0.12253	0.074768	-0.11902	0.001984	-0.005951	-0.078125	-0.061951	-0.005341	-0.021057	-0.085754	0.53497	0.13519	-0.017395	0.008698	-0.14557	-0.26443	-0.067749	0.002899	-0.007019	-0.001678	0.39627	0.10559	-0.004425	-0.005493
25.192	0.00946	0.25192	-0.009155	-0.00061	-0.02182	-0.052185	0.18845	0.006714	-0.12405	-0.014954	0.037231	-0.002136	-0.008698	-0.071259	-0.045013	0.004883	-0.006714	0.009308	-0.25955	0.26871	0.025482	0.022125	-0.19379	-0.068054	0.014496	0.003662	0.075378	-0.001221	0.11322	0.1178	-0.002899	0.007629
25.193	0.010071	0.25787	-0.00473	-0.00473	-0.022583	-0.038452	0.18921	0.007782	-0.13504	-0.08667	0.2063	-0.001984	-0.028076	-0.014496	0.085907	0.002289	0.013428	0.046539	-0.28671	0.2356	0.12436	-0.017548	-0.081177	0.10468	0.059204	-0.007935	0.41687	0.001831	-0.35172	0.1944	-0.002136	0.00351
25.194	0.010376	0.28976	0.001678	0.022736	0.089722	-0.025024	0.18555	0.009918	-0.13901	-0.17441	0.03006	-0.002899	0.039978	-0.001373	-0.04303	0.01236	0.021667	0.12009	-0.020599	0.092926	0.15335	-0.029297	0.02533	-0.016022	0.066833	-0.005341	0.18646	-0.001678	-0.37231	0.11765	-0.001526	0.000153
25.195	0.012512	0.27054	-0.039368	0.025177	0.079193	0.002747	0.19821	0.015717	-0.15488	-0.13763	-0.10956	-0.001678	0.10162	-0.032654	0.88226	0.010223	0.010681	0.2179	0.2095	-0.005493	-0.023956	0.014801	0.059509	-0.092163	0.029907	0.00351	0.011444	0.000458	-0.053864	0.16434	-0.003662	0.004578
25.196	0.003052	0.30609	-0.039215	-0.003052	0.050507	-0.003815	0.21133	0.018005	-0.15305	-0.051575	-0.008698	0.005188	0.066376	0.002441	0.49454	0.010529	-0.003815	0.29404	-0.25543	-0.06485	-0.34607	0.013275	0.1178	0.050659	0.009918	0.003967	0.018158	0.001831	0.60684	0.17609	-0.007782	-0.001984
